<svg version="1.1" xmlns="http://www.w3.org/2000/svg" xmlns:xlink="http://www.w3.org/1999/xlink" preserveAspectRatio="xMidYMid meet" viewBox="0 0 640 640" width="640" height="640"><defs><path d="M23.7 438.51L272.59 580.73L272.59 296.3L23.7 154.08L23.7 438.51Z" id="a14rJUi6pl"></path><path d="M343.69 331.85L450.36 270.9" id="a4kogSmLM"></path><path d="M272.59 11.86L23.7 154.08L272.59 296.3L272.59 580.73L521.47 438.51L521.47 154.08L272.59 11.86Z" id="baH4L6fNx"></path><path d="M272.59 580.73L379.25 521.48L521.47 438.51L521.47 154.08L272.59 296.3L272.59 580.73Z" id="f7ML293ye6"></path><path d="M497.77 391.11C432.31 391.11 379.25 444.17 379.25 509.62C379.25 575.08 432.31 628.14 497.77 628.14C563.22 628.14 616.28 575.08 616.28 509.62C616.28 444.17 563.22 391.11 497.77 391.11Z" id="c3BAPPWoNT"></path><path d="M201.48 379.26L118.52 331.85L118.52 208.25L201.48 255.66L201.48 379.26Z" id="bbLfnmmcL"></path><path d="M284.43 106.67L367.4 154.08L438.66 106.77L355.87 59.44L284.43 106.67Z" id="c1cwMD8ItX"></path><path d="M308.14 189.63L225.18 142.23L118.52 208.25L201.48 255.66L308.14 189.63Z" id="b26Xuym4TR"></path><path d="M444.48 260.61C433.81 266.71 348.48 315.47 337.82 321.56C332.14 324.81 330.16 332.05 333.42 337.74C335.52 341.42 339.45 343.7 343.69 343.7C345.77 343.72 347.82 343.18 349.62 342.14C360.29 336.04 445.62 287.28 456.28 281.19C461.95 277.92 463.9 270.69 460.65 265.02C457.4 259.34 450.16 257.37 444.48 260.61Z" id="b3ZQ5eo9wL"></path><path d="M533.32 154.08C533.32 153.03 533.18 151.99 532.9 150.98C532.77 150.58 532.61 150.18 532.42 149.8C532.23 149.23 532 148.67 531.73 148.14C531.48 147.73 531.14 147.38 530.85 146.95C530.55 146.5 530.22 146.07 529.86 145.66C529.48 145.34 529.09 145.04 528.67 144.77C528.27 144.42 527.84 144.08 527.39 143.78C502.51 129.56 303.4 15.78 278.51 1.56C274.87 -0.52 270.4 -0.52 266.75 1.56C241.87 15.78 42.76 129.56 17.87 143.78C17.42 144.08 17 144.42 16.59 144.77C16.18 145.04 15.78 145.34 15.41 145.66C15.05 146.07 14.71 146.5 14.41 146.95C14.13 147.35 13.78 147.69 13.53 148.14C13.26 148.67 13.03 149.23 12.85 149.8C12.66 150.18 12.5 150.58 12.36 150.98C12.05 151.99 11.88 153.03 11.85 154.08C11.85 182.52 11.85 410.07 11.85 438.51C11.84 442.76 14.1 446.68 17.78 448.8C34.36 458.28 117.29 505.66 266.57 590.95C266.64 590.99 266.69 591.02 266.7 591.02C267.27 591.32 267.86 591.56 268.47 591.76C268.83 591.89 269.16 592.09 269.53 592.18C270.52 592.45 271.55 592.58 272.59 592.58C273.6 592.58 274.61 592.45 275.58 592.19C275.92 592.11 276.22 591.92 276.56 591.8C277.17 591.62 277.77 591.38 278.35 591.09C287.61 585.94 361.75 544.76 371.01 539.61C387.55 609.64 457.72 653.02 527.76 636.48C597.79 619.95 641.17 549.77 624.63 479.74C613.77 433.71 578.82 397.19 533.32 384.31C533.32 338.26 533.32 177.1 533.32 154.08ZM225.67 156.1L285.61 190.36L205.1 244.03L145.15 209.78L225.67 156.1ZM150.12 245.04L189.62 267.62L189.62 358.87L130.37 324.98L130.37 233.76L150.12 245.04ZM366.92 140.16L307.04 105.94L356.32 73.36L416.1 107.52L366.92 140.16ZM333.27 60.19C300.04 82.16 281.59 94.36 277.9 96.8C272.44 100.42 270.96 107.78 274.58 113.23C275.6 114.76 276.95 116.03 278.55 116.95C286.84 121.69 353.21 159.61 361.51 164.35C365.4 166.58 370.22 166.42 373.95 163.94C378.3 161.05 400.03 146.63 439.14 120.67L497.58 154.08L272.59 282.64L228.11 257.19C280.07 222.54 308.94 203.29 314.72 199.45C320.16 195.81 321.63 188.45 318 183.01C316.98 181.48 315.61 180.21 314.02 179.3C305.72 174.56 239.35 136.63 231.06 131.89C227.16 129.66 222.34 129.83 218.6 132.32C212.17 136.61 180.02 158.04 122.14 196.62L47.6 154.08L272.59 25.51L333.27 60.19ZM106.66 215.14C106.66 285.17 106.66 324.07 106.66 331.85C106.66 336.09 108.92 340.02 112.59 342.14C120.89 346.88 187.25 384.8 195.55 389.54C201.22 392.82 208.47 390.87 211.74 385.21C212.78 383.4 213.33 381.35 213.33 379.26C213.33 372.38 213.33 337.99 213.33 276.08L260.73 303.17L260.73 560.35L35.55 431.64L35.55 174.5L106.66 215.14ZM284.44 303.17L434.56 217.39L509.62 174.5C509.62 297.72 509.62 366.17 509.62 379.86C505.71 379.51 501.77 379.26 497.77 379.26C425.8 379.34 367.48 437.66 367.4 509.62C367.4 511.22 367.58 512.78 367.64 514.36C362.09 517.45 334.36 532.85 284.44 560.59L284.44 303.17ZM391.1 509.62C391.1 450.72 438.86 402.96 497.77 402.96C556.67 402.96 604.43 450.72 604.43 509.62C604.36 568.5 556.64 616.22 497.77 616.29C438.86 616.29 391.1 568.53 391.1 509.62Z" id="e25RXhKVXI"></path><path d="M499.29 505.14C490.09 524.67 482.39 540.64 482.18 540.64C481.96 540.64 475.05 529.95 466.7 516.9C456.22 500.43 451.02 492.87 449.52 491.95C446.6 490.31 440.4 490.31 437.62 492.02C436.19 492.94 432.98 497.58 427.71 506.28C427.19 507.14 424.6 511.47 419.93 519.25L401.54 519.25L383.07 519.25L383.07 530.09L383.07 541C397.28 540.87 405.17 540.8 406.74 540.78C428.56 540.57 430.63 540.5 432.62 539.21C433.98 538.36 436.55 534.94 439.33 530.3C441.89 526.17 444.1 523.03 444.32 523.39C444.53 523.74 451.66 534.87 460.07 548.06C470.84 564.88 476.04 572.51 477.61 573.51C480.68 575.36 486.6 575.36 489.73 573.37C492.51 571.65 490.3 576 516.68 520.46C517.94 517.81 524.21 504.52 535.51 480.61C536.58 482.49 537.17 483.54 537.29 483.75C538.29 485.39 544.92 497.72 552.05 511.05C566.73 538.43 566.23 537.5 568.94 539.29C570.8 540.5 572.79 540.64 593.97 540.64C595.5 540.64 603.15 540.64 616.93 540.64L616.93 529.95L616.93 519.25L599.32 519.25L581.63 519.18C571.28 499.84 565.53 489.1 564.38 486.95C542.85 446.89 543.21 447.53 540.64 446.17C537.57 444.6 531.51 444.82 528.66 446.6C526.02 448.31 526.38 447.6 499.29 505.14Z" id="dg83P5n4O"></path></defs><g><g><g><use xlink:href="#a14rJUi6pl" opacity="1" fill="#ea9d2d" fill-opacity="1"></use><g><use xlink:href="#a14rJUi6pl" opacity="1" fill-opacity="0" stroke="#000000" stroke-width="1" stroke-opacity="0"></use></g></g><g><use xlink:href="#a4kogSmLM" opacity="1" fill="#000000" fill-opacity="0"></use><g><use xlink:href="#a4kogSmLM" opacity="1" fill-opacity="0" stroke="#000000" stroke-width="2" stroke-opacity="1"></use></g></g><g><use xlink:href="#baH4L6fNx" opacity="1" fill="#fbb540" fill-opacity="1"></use><g><use xlink:href="#baH4L6fNx" opacity="1" fill-opacity="0" stroke="#000000" stroke-width="1" stroke-opacity="0"></use></g></g><g><use xlink:href="#f7ML293ye6" opacity="1" fill="#f7ba61" fill-opacity="1"></use><g><use xlink:href="#f7ML293ye6" opacity="1" fill-opacity="0" stroke="#000000" stroke-width="1" stroke-opacity="0"></use></g></g><g><use xlink:href="#c3BAPPWoNT" opacity="1" fill="#03cc00" fill-opacity="1.00"></use><g><use xlink:href="#c3BAPPWoNT" opacity="1" fill-opacity="0" stroke="#000000" stroke-width="1" stroke-opacity="0"></use></g></g><g><use xlink:href="#bbLfnmmcL" opacity="1" fill="#d9d9d9" fill-opacity="1"></use><g><use xlink:href="#bbLfnmmcL" opacity="1" fill-opacity="0" stroke="#000000" stroke-width="1" stroke-opacity="0"></use></g></g><g><use xlink:href="#c1cwMD8ItX" opacity="1" fill="#f0f0f0" fill-opacity="1"></use><g><use xlink:href="#c1cwMD8ItX" opacity="1" fill-opacity="0" stroke="#000000" stroke-width="1" stroke-opacity="0"></use></g></g><g><use xlink:href="#b26Xuym4TR" opacity="1" fill="#f0f0f0" fill-opacity="1"></use><g><use xlink:href="#b26Xuym4TR" opacity="1" fill-opacity="0" stroke="#000000" stroke-width="1" stroke-opacity="0"></use></g></g><g><use xlink:href="#b3ZQ5eo9wL" opacity="1" fill="#000000" fill-opacity="1"></use><g><use xlink:href="#b3ZQ5eo9wL" opacity="1" fill-opacity="0" stroke="#000000" stroke-width="1" stroke-opacity="0"></use></g></g><g><use xlink:href="#e25RXhKVXI" opacity="1" fill="#000000" fill-opacity="1"></use><g><use xlink:href="#e25RXhKVXI" opacity="1" fill-opacity="0" stroke="#000000" stroke-width="1" stroke-opacity="0"></use></g></g><g><use xlink:href="#dg83P5n4O" opacity="1" fill="#000000" fill-opacity="1"></use><g><use xlink:href="#dg83P5n4O" opacity="1" fill-opacity="0" stroke="#000000" stroke-width="1" stroke-opacity="0"></use></g></g></g></g></svg>